+ filenameToUse=/home/horvathandras/vatic/vatic/public/videouploads/Gabonaturas.avi
+ filenameNoDot=Gabonaturas_Kotcse_2018.04.25._napos_kalaszos_T1
+ FullUploadPath=/home/horvathandras/vatic/vatic/public/videouploads/Gabonaturas.avi
+ VideoDataDir=/home/horvathandras/vatic/vatic/videos
+ AvailableObjectTypes='PozitívROI NegatívROI Túrás ~Friss ~Régebbi Rágás ~Friss ~Régebbi Törés ~Friss ~Régebbi Taposás ~Friss ~Régebbi EgészségesNövény Egyéb1 Egyéb2 Egyéb3 Egyéb4 Egyéb5'
++ dirname /home/horvathandras/vatic/vatic/vatic_publisher.sh
+ cd /home/horvathandras/vatic/vatic
+ touch /home/horvathandras/vatic/vatic/public/videouploads/Gabonaturas.avi
+ chmod 744 /home/horvathandras/vatic/vatic/public/videouploads/Gabonaturas.avi
+ mkdir /home/horvathandras/vatic/vatic/videos/Gabonaturas_Kotcse_2018.04.25._napos_kalaszos_T1
+ turkic extract /home/horvathandras/vatic/vatic/public/videouploads/Gabonaturas.avi /home/horvathandras/vatic/vatic/videos/Gabonaturas_Kotcse_2018.04.25._napos_kalaszos_T1 --no-resize
ffmpeg version 2.8.14-0ubuntu0.16.04.1 Copyright (c) 2000-2018 the FFmpeg developers
  built with gcc 5.4.0 (Ubuntu 5.4.0-6ubuntu1~16.04.9) 20160609
  configuration: --prefix=/usr --extra-version=0ubuntu0.16.04.1 --build-suffix=-ffmpeg --toolchain=hardened --libdir=/usr/lib/x86_64-linux-gnu --incdir=/usr/include/x86_64-linux-gnu --cc=cc --cxx=g++ --enable-gpl --enable-shared --disable-stripping --disable-decoder=libopenjpeg --disable-decoder=libschroedinger --enable-avresample --enable-avisynth --enable-gnutls --enable-ladspa --enable-libass --enable-libbluray --enable-libbs2b --enable-libcaca --enable-libcdio --enable-libflite --enable-libfontconfig --enable-libfreetype --enable-libfribidi --enable-libgme --enable-libgsm --enable-libmodplug --enable-libmp3lame --enable-libopenjpeg --enable-libopus --enable-libpulse --enable-librtmp --enable-libschroedinger --enable-libshine --enable-libsnappy --enable-libsoxr --enable-libspeex --enable-libssh --enable-libtheora --enable-libtwolame --enable-libvorbis --enable-libvpx --enable-libwavpack --enable-libwebp --enable-libx265 --enable-libxvid --enable-libzvbi --enable-openal --enable-opengl --enable-x11grab --enable-libdc1394 --enable-libiec61883 --enable-libzmq --enable-frei0r --enable-libx264 --enable-libopencv
  libavutil      54. 31.100 / 54. 31.100
  libavcodec     56. 60.100 / 56. 60.100
  libavformat    56. 40.101 / 56. 40.101
  libavdevice    56.  4.100 / 56.  4.100
  libavfilter     5. 40.101 /  5. 40.101
  libavresample   2.  1.  0 /  2.  1.  0
  libswscale      3.  1.101 /  3.  1.101
  libswresample   1.  2.101 /  1.  2.101
  libpostproc    53.  3.100 / 53.  3.100
Input #0, mov,mp4,m4a,3gp,3g2,mj2, from '/home/horvathandras/vatic/vatic/public/videouploads/Gabonaturas.avi':
  Metadata:
    major_brand     : qt  
    minor_version   : 537986816
    compatible_brands: qt  
    creation_time   : 2018-04-25 15:49:09
    location        : +46.735333+17.863577+30.600
    location-{    : +46.735333+17.863577+30.600
    comment         : DE=None, Mode=P, DSW=0001
  Duration: 00:00:56.86, start: 0.000000, bitrate: 100201 kb/s
    Stream #0:0(eng): Video: h264 (High) (avc1 / 0x31637661), yuv420p(tv, bt709), 4096x2160 [SAR 1:1 DAR 256:135], 100132 kb/s, 29.97 fps, 29.97 tbr, 30k tbn, 59.94 tbc (default)
    Metadata:
      creation_time   : 2018-04-25 15:49:09
      handler_name    : DJI.AVC
      encoder         : AVC encoder
    Stream #0:1(eng): Data: none (priv / 0x76697270), 65 kb/s
    Metadata:
      creation_time   : 2018-04-25 15:49:09
      handler_name    : DJI.Meta
Please use -b:a or -b:v, -b is ambiguous
[swscaler @ 0x1c5ebe0] deprecated pixel format used, make sure you did set range correctly
Output #0, image2, to '/tmp/pyvision-ffmpeg-695925176/%d.jpg':
  Metadata:
    major_brand     : qt  
    minor_version   : 537986816
    compatible_brands: qt  
    comment         : DE=None, Mode=P, DSW=0001
    location        : +46.735333+17.863577+30.600
    location-{    : +46.735333+17.863577+30.600
    encoder         : Lavf56.40.101
    Stream #0:0(eng): Video: mjpeg, yuvj420p(pc), 4096x2160 [SAR 1:1 DAR 256:135], q=2-31, 10000 kb/s, 29.97 fps, 29.97 tbn, 29.97 tbc (default)
    Metadata:
      creation_time   : 2018-04-25 15:49:09
      handler_name    : DJI.AVC
      encoder         : Lavc56.60.100 mjpeg
Stream mapping:
  Stream #0:0 -> #0:0 (h264 (native) -> mjpeg (native))
Press [q] to stop, [?] for help
frame=    1 fps=0.0 q=15.9 size=N/A time=00:00:00.03 bitrate=N/A    frame=    5 fps=3.6 q=24.8 size=N/A time=00:00:00.16 bitrate=N/A    frame=   10 fps=5.0 q=24.8 size=N/A time=00:00:00.33 bitrate=N/A    frame=   15 fps=5.7 q=24.8 size=N/A time=00:00:00.50 bitrate=N/A    frame=   20 fps=6.2 q=24.8 size=N/A time=00:00:00.66 bitrate=N/A    frame=   25 fps=6.5 q=24.8 size=N/A time=00:00:00.83 bitrate=N/A    frame=   30 fps=6.7 q=24.8 size=N/A time=00:00:01.00 bitrate=N/A    frame=   34 fps=6.8 q=24.8 size=N/A time=00:00:01.13 bitrate=N/A    frame=   39 fps=7.0 q=24.8 size=N/A time=00:00:01.30 bitrate=N/A    frame=   44 fps=7.1 q=24.8 size=N/A time=00:00:01.46 bitrate=N/A    frame=   49 fps=7.2 q=24.8 size=N/A time=00:00:01.63 bitrate=N/A    frame=   54 fps=7.3 q=24.8 size=N/A time=00:00:01.80 bitrate=N/A    frame=   59 fps=7.3 q=24.8 size=N/A time=00:00:01.96 bitrate=N/A    frame=   64 fps=7.4 q=24.8 size=N/A time=00:00:02.13 bitrate=N/A    frame=   69 fps=7.4 q=24.8 size=N/A time=00:00:02.30 bitrate=N/A    frame=   74 fps=7.5 q=24.8 size=N/A time=00:00:02.46 bitrate=N/A    frame=   79 fps=7.5 q=24.8 size=N/A time=00:00:02.63 bitrate=N/A    frame=   84 fps=7.6 q=24.8 size=N/A time=00:00:02.80 bitrate=N/A    frame=   89 fps=7.6 q=24.8 size=N/A time=00:00:02.96 bitrate=N/A    frame=   94 fps=7.6 q=24.8 size=N/A time=00:00:03.13 bitrate=N/A    frame=   99 fps=7.6 q=24.8 size=N/A time=00:00:03.30 bitrate=N/A    frame=  104 fps=7.7 q=24.8 size=N/A time=00:00:03.47 bitrate=N/A    frame=  109 fps=7.7 q=24.8 size=N/A time=00:00:03.63 bitrate=N/A    frame=  114 fps=7.7 q=24.8 size=N/A time=00:00:03.80 bitrate=N/A    frame=  119 fps=7.7 q=24.8 size=N/A time=00:00:03.97 bitrate=N/A    frame=  124 fps=7.7 q=24.8 size=N/A time=00:00:04.13 bitrate=N/A    frame=  129 fps=7.7 q=24.8 size=N/A time=00:00:04.30 bitrate=N/A    frame=  134 fps=7.8 q=24.8 size=N/A time=00:00:04.47 bitrate=N/A    frame=  139 fps=7.8 q=24.8 size=N/A time=00:00:04.63 bitrate=N/A    frame=  144 fps=7.8 q=24.8 size=N/A time=00:00:04.80 bitrate=N/A    frame=  149 fps=7.8 q=24.8 size=N/A time=00:00:04.97 bitrate=N/A    frame=  154 fps=7.8 q=24.8 size=N/A time=00:00:05.13 bitrate=N/A    frame=  159 fps=7.8 q=24.8 size=N/A time=00:00:05.30 bitrate=N/A    frame=  164 fps=7.8 q=24.8 size=N/A time=00:00:05.47 bitrate=N/A    frame=  169 fps=7.8 q=24.8 size=N/A time=00:00:05.63 bitrate=N/A    frame=  174 fps=7.8 q=24.8 size=N/A time=00:00:05.80 bitrate=N/A    frame=  179 fps=7.8 q=24.8 size=N/A time=00:00:05.97 bitrate=N/A    frame=  184 fps=7.8 q=24.8 size=N/A time=00:00:06.13 bitrate=N/A    frame=  189 fps=7.8 q=24.8 size=N/A time=00:00:06.30 bitrate=N/A    frame=  194 fps=7.9 q=24.8 size=N/A time=00:00:06.47 bitrate=N/A    frame=  199 fps=7.9 q=24.8 size=N/A time=00:00:06.63 bitrate=N/A    frame=  204 fps=7.9 q=24.8 size=N/A time=00:00:06.80 bitrate=N/A    frame=  209 fps=7.9 q=24.8 size=N/A time=00:00:06.97 bitrate=N/A    frame=  214 fps=7.9 q=24.8 size=N/A time=00:00:07.14 bitrate=N/A    frame=  219 fps=7.9 q=24.8 size=N/A time=00:00:07.30 bitrate=N/A    frame=  224 fps=7.9 q=24.8 size=N/A time=00:00:07.47 bitrate=N/A    frame=  229 fps=7.9 q=24.8 size=N/A time=00:00:07.64 bitrate=N/A    frame=  234 fps=7.9 q=24.8 size=N/A time=00:00:07.80 bitrate=N/A    frame=  239 fps=7.9 q=24.8 size=N/A time=00:00:07.97 bitrate=N/A    frame=  244 fps=7.9 q=24.8 size=N/A time=00:00:08.14 bitrate=N/A    frame=  249 fps=7.9 q=24.8 size=N/A time=00:00:08.30 bitrate=N/A    frame=  254 fps=7.9 q=24.8 size=N/A time=00:00:08.47 bitrate=N/A    frame=  259 fps=7.9 q=24.8 size=N/A time=00:00:08.64 bitrate=N/A    frame=  264 fps=7.9 q=24.8 size=N/A time=00:00:08.80 bitrate=N/A    frame=  269 fps=7.9 q=24.8 size=N/A time=00:00:08.97 bitrate=N/A    frame=  274 fps=7.9 q=24.8 size=N/A time=00:00:09.14 bitrate=N/A    frame=  279 fps=7.9 q=24.8 size=N/A time=00:00:09.30 bitrate=N/A    frame=  284 fps=7.9 q=24.8 size=N/A time=00:00:09.47 bitrate=N/A    frame=  289 fps=7.9 q=24.8 size=N/A time=00:00:09.64 bitrate=N/A    frame=  294 fps=7.9 q=24.8 size=N/A time=00:00:09.80 bitrate=N/A    frame=  299 fps=7.9 q=24.8 size=N/A time=00:00:09.97 bitrate=N/A    frame=  304 fps=7.9 q=24.8 size=N/A time=00:00:10.14 bitrate=N/A    frame=  309 fps=7.9 q=24.8 size=N/A time=00:00:10.31 bitrate=N/A    frame=  314 fps=7.9 q=24.8 size=N/A time=00:00:10.47 bitrate=N/A    frame=  319 fps=7.9 q=24.8 size=N/A time=00:00:10.64 bitrate=N/A    frame=  324 fps=7.9 q=24.8 size=N/A time=00:00:10.81 bitrate=N/A    frame=  329 fps=7.9 q=24.8 size=N/A time=00:00:10.97 bitrate=N/A    frame=  334 fps=7.9 q=24.8 size=N/A time=00:00:11.14 bitrate=N/A    frame=  339 fps=7.9 q=24.8 size=N/A time=00:00:11.31 bitrate=N/A    frame=  344 fps=7.9 q=24.8 size=N/A time=00:00:11.47 bitrate=N/A    frame=  349 fps=7.9 q=24.8 size=N/A time=00:00:11.64 bitrate=N/A    frame=  354 fps=7.9 q=24.8 size=N/A time=00:00:11.81 bitrate=N/A    frame=  359 fps=8.0 q=24.8 size=N/A time=00:00:11.97 bitrate=N/A    frame=  364 fps=8.0 q=24.8 size=N/A time=00:00:12.14 bitrate=N/A    frame=  369 fps=8.0 q=24.8 size=N/A time=00:00:12.31 bitrate=N/A    frame=  374 fps=8.0 q=24.8 size=N/A time=00:00:12.47 bitrate=N/A    frame=  379 fps=8.0 q=24.8 size=N/A time=00:00:12.64 bitrate=N/A    frame=  384 fps=8.0 q=24.8 size=N/A time=00:00:12.81 bitrate=N/A    frame=  389 fps=8.0 q=24.8 size=N/A time=00:00:12.97 bitrate=N/A    frame=  394 fps=8.0 q=24.8 size=N/A time=00:00:13.14 bitrate=N/A    frame=  399 fps=8.0 q=24.8 size=N/A time=00:00:13.31 bitrate=N/A    frame=  404 fps=8.0 q=24.8 size=N/A time=00:00:13.48 bitrate=N/A    frame=  409 fps=8.0 q=24.8 size=N/A time=00:00:13.64 bitrate=N/A    frame=  414 fps=8.0 q=24.8 size=N/A time=00:00:13.81 bitrate=N/A    frame=  419 fps=8.0 q=24.8 size=N/A time=00:00:13.98 bitrate=N/A    frame=  424 fps=8.0 q=24.8 size=N/A time=00:00:14.14 bitrate=N/A    frame=  429 fps=8.0 q=24.8 size=N/A time=00:00:14.31 bitrate=N/A    frame=  434 fps=8.0 q=24.8 size=N/A time=00:00:14.48 bitrate=N/A    frame=  439 fps=8.0 q=24.8 size=N/A time=00:00:14.64 bitrate=N/A    frame=  444 fps=8.0 q=24.8 size=N/A time=00:00:14.81 bitrate=N/A    frame=  449 fps=8.0 q=24.8 size=N/A time=00:00:14.98 bitrate=N/A    frame=  454 fps=8.0 q=24.8 size=N/A time=00:00:15.14 bitrate=N/A    frame=  459 fps=8.0 q=24.8 size=N/A time=00:00:15.31 bitrate=N/A    frame=  464 fps=8.0 q=24.8 size=N/A time=00:00:15.48 bitrate=N/A    frame=  469 fps=8.0 q=24.8 size=N/A time=00:00:15.64 bitrate=N/A    frame=  474 fps=8.0 q=24.8 size=N/A time=00:00:15.81 bitrate=N/A    frame=  479 fps=8.0 q=24.8 size=N/A time=00:00:15.98 bitrate=N/A    frame=  484 fps=8.0 q=24.8 size=N/A time=00:00:16.14 bitrate=N/A    frame=  489 fps=8.0 q=24.8 size=N/A time=00:00:16.31 bitrate=N/A    frame=  494 fps=8.0 q=24.8 size=N/A time=00:00:16.48 bitrate=N/A    frame=  499 fps=8.0 q=24.8 size=N/A time=00:00:16.64 bitrate=N/A    frame=  504 fps=8.0 q=24.8 size=N/A time=00:00:16.81 bitrate=N/A    frame=  509 fps=8.0 q=24.8 size=N/A time=00:00:16.98 bitrate=N/A    frame=  514 fps=8.0 q=24.8 size=N/A time=00:00:17.15 bitrate=N/A    frame=  519 fps=8.0 q=24.8 size=N/A time=00:00:17.31 bitrate=N/A    frame=  524 fps=8.0 q=24.8 size=N/A time=00:00:17.48 bitrate=N/A    frame=  529 fps=8.0 q=24.8 size=N/A time=00:00:17.65 bitrate=N/A    frame=  534 fps=8.0 q=24.8 size=N/A time=00:00:17.81 bitrate=N/A    frame=  539 fps=8.0 q=24.8 size=N/A time=00:00:17.98 bitrate=N/A    frame=  544 fps=8.0 q=24.8 size=N/A time=00:00:18.15 bitrate=N/A    frame=  549 fps=8.0 q=24.8 size=N/A time=00:00:18.31 bitrate=N/A    frame=  554 fps=8.0 q=24.8 size=N/A time=00:00:18.48 bitrate=N/A    frame=  559 fps=8.0 q=24.8 size=N/A time=00:00:18.65 bitrate=N/A    frame=  564 fps=8.0 q=24.8 size=N/A time=00:00:18.81 bitrate=N/A    frame=  569 fps=8.0 q=24.8 size=N/A time=00:00:18.98 bitrate=N/A    frame=  574 fps=8.0 q=24.8 size=N/A time=00:00:19.15 bitrate=N/A    frame=  579 fps=8.0 q=24.8 size=N/A time=00:00:19.31 bitrate=N/A    frame=  584 fps=8.0 q=24.8 size=N/A time=00:00:19.48 bitrate=N/A    frame=  589 fps=8.0 q=24.8 size=N/A time=00:00:19.65 bitrate=N/A    frame=  594 fps=8.0 q=24.8 size=N/A time=00:00:19.81 bitrate=N/A    frame=  599 fps=8.0 q=24.8 size=N/A time=00:00:19.98 bitrate=N/A    frame=  604 fps=8.0 q=24.8 size=N/A time=00:00:20.15 bitrate=N/A    frame=  609 fps=8.0 q=24.8 size=N/A time=00:00:20.32 bitrate=N/A    frame=  614 fps=8.0 q=24.8 size=N/A time=00:00:20.48 bitrate=N/A    frame=  619 fps=8.0 q=24.8 size=N/A time=00:00:20.65 bitrate=N/A    frame=  624 fps=8.0 q=24.8 size=N/A time=00:00:20.82 bitrate=N/A    frame=  629 fps=8.0 q=24.8 size=N/A time=00:00:20.98 bitrate=N/A    frame=  634 fps=8.0 q=24.8 size=N/A time=00:00:21.15 bitrate=N/A    frame=  639 fps=8.0 q=24.8 size=N/A time=00:00:21.32 bitrate=N/A    frame=  644 fps=8.0 q=24.8 size=N/A time=00:00:21.48 bitrate=N/A    frame=  649 fps=8.0 q=24.8 size=N/A time=00:00:21.65 bitrate=N/A    frame=  654 fps=8.0 q=24.8 size=N/A time=00:00:21.82 bitrate=N/A    frame=  659 fps=8.0 q=24.8 size=N/A time=00:00:21.98 bitrate=N/A    frame=  664 fps=8.0 q=24.8 size=N/A time=00:00:22.15 bitrate=N/A    frame=  669 fps=8.0 q=24.8 size=N/A time=00:00:22.32 bitrate=N/A    frame=  674 fps=8.0 q=24.8 size=N/A time=00:00:22.48 bitrate=N/A    frame=  679 fps=8.0 q=24.8 size=N/A time=00:00:22.65 bitrate=N/A    frame=  684 fps=8.0 q=24.8 size=N/A time=00:00:22.82 bitrate=N/A    frame=  688 fps=8.0 q=24.8 size=N/A time=00:00:22.95 bitrate=N/A    frame=  693 fps=8.0 q=24.8 size=N/A time=00:00:23.12 bitrate=N/A    frame=  698 fps=8.0 q=24.8 size=N/A time=00:00:23.28 bitrate=N/A    frame=  703 fps=8.0 q=24.8 size=N/A time=00:00:23.45 bitrate=N/A    frame=  708 fps=8.0 q=24.8 size=N/A time=00:00:23.62 bitrate=N/A    frame=  713 fps=8.0 q=24.8 size=N/A time=00:00:23.79 bitrate=N/A    frame=  718 fps=8.0 q=24.8 size=N/A time=00:00:23.95 bitrate=N/A    frame=  723 fps=8.0 q=24.8 size=N/A time=00:00:24.12 bitrate=N/A    frame=  728 fps=8.0 q=24.8 size=N/A time=00:00:24.29 bitrate=N/A    frame=  733 fps=8.0 q=24.8 size=N/A time=00:00:24.45 bitrate=N/A    frame=  738 fps=8.0 q=24.8 size=N/A time=00:00:24.62 bitrate=N/A    frame=  743 fps=8.0 q=24.8 size=N/A time=00:00:24.79 bitrate=N/A    frame=  748 fps=8.0 q=24.8 size=N/A time=00:00:24.95 bitrate=N/A    frame=  753 fps=8.0 q=24.8 size=N/A time=00:00:25.12 bitrate=N/A    frame=  758 fps=8.0 q=24.8 size=N/A time=00:00:25.29 bitrate=N/A    frame=  763 fps=8.0 q=24.8 size=N/A time=00:00:25.45 bitrate=N/A    frame=  768 fps=8.0 q=24.8 size=N/A time=00:00:25.62 bitrate=N/A    frame=  773 fps=8.0 q=24.8 size=N/A time=00:00:25.79 bitrate=N/A    frame=  778 fps=8.0 q=24.8 size=N/A time=00:00:25.95 bitrate=N/A    frame=  783 fps=8.0 q=24.8 size=N/A time=00:00:26.12 bitrate=N/A    frame=  788 fps=8.0 q=24.8 size=N/A time=00:00:26.29 bitrate=N/A    frame=  793 fps=8.0 q=24.8 size=N/A time=00:00:26.45 bitrate=N/A    frame=  798 fps=8.0 q=24.8 size=N/A time=00:00:26.62 bitrate=N/A    frame=  803 fps=8.0 q=24.8 size=N/A time=00:00:26.79 bitrate=N/A    frame=  808 fps=8.0 q=24.8 size=N/A time=00:00:26.96 bitrate=N/A    frame=  813 fps=8.0 q=24.8 size=N/A time=00:00:27.12 bitrate=N/A    frame=  818 fps=8.0 q=24.8 size=N/A time=00:00:27.29 bitrate=N/A    frame=  823 fps=8.0 q=24.8 size=N/A time=00:00:27.46 bitrate=N/A    frame=  828 fps=8.0 q=24.8 size=N/A time=00:00:27.62 bitrate=N/A    frame=  833 fps=8.0 q=24.8 size=N/A time=00:00:27.79 bitrate=N/A    frame=  838 fps=8.0 q=24.8 size=N/A time=00:00:27.96 bitrate=N/A    frame=  843 fps=8.0 q=24.8 size=N/A time=00:00:28.12 bitrate=N/A    frame=  848 fps=8.0 q=24.8 size=N/A time=00:00:28.29 bitrate=N/A    frame=  853 fps=8.0 q=24.8 size=N/A time=00:00:28.46 bitrate=N/A    frame=  858 fps=8.0 q=24.8 size=N/A time=00:00:28.62 bitrate=N/A    frame=  863 fps=8.0 q=24.8 size=N/A time=00:00:28.79 bitrate=N/A    frame=  868 fps=8.0 q=24.8 size=N/A time=00:00:28.96 bitrate=N/A    frame=  873 fps=8.0 q=24.8 size=N/A time=00:00:29.12 bitrate=N/A    frame=  878 fps=8.0 q=24.8 size=N/A time=00:00:29.29 bitrate=N/A    frame=  883 fps=8.0 q=24.8 size=N/A time=00:00:29.46 bitrate=N/A    frame=  888 fps=8.0 q=24.8 size=N/A time=00:00:29.62 bitrate=N/A    frame=  893 fps=8.0 q=24.8 size=N/A time=00:00:29.79 bitrate=N/A    frame=  898 fps=8.0 q=24.8 size=N/A time=00:00:29.96 bitrate=N/A    frame=  903 fps=8.0 q=24.8 size=N/A time=00:00:30.13 bitrate=N/A    frame=  908 fps=8.0 q=24.8 size=N/A time=00:00:30.29 bitrate=N/A    frame=  913 fps=8.0 q=24.8 size=N/A time=00:00:30.46 bitrate=N/A    frame=  918 fps=8.0 q=24.8 size=N/A time=00:00:30.63 bitrate=N/A    frame=  923 fps=8.0 q=24.8 size=N/A time=00:00:30.79 bitrate=N/A    frame=  928 fps=8.0 q=24.8 size=N/A time=00:00:30.96 bitrate=N/A    frame=  933 fps=8.0 q=24.8 size=N/A time=00:00:31.13 bitrate=N/A    frame=  938 fps=8.0 q=24.8 size=N/A time=00:00:31.29 bitrate=N/A    frame=  943 fps=8.0 q=24.8 size=N/A time=00:00:31.46 bitrate=N/A    frame=  948 fps=8.0 q=24.8 size=N/A time=00:00:31.63 bitrate=N/A    frame=  953 fps=8.0 q=24.8 size=N/A time=00:00:31.79 bitrate=N/A    frame=  958 fps=8.0 q=24.8 size=N/A time=00:00:31.96 bitrate=N/A    frame=  963 fps=8.0 q=24.8 size=N/A time=00:00:32.13 bitrate=N/A    frame=  968 fps=8.0 q=24.8 size=N/A time=00:00:32.29 bitrate=N/A    frame=  973 fps=8.0 q=24.8 size=N/A time=00:00:32.46 bitrate=N/A    frame=  978 fps=8.0 q=24.8 size=N/A time=00:00:32.63 bitrate=N/A    frame=  983 fps=8.0 q=24.8 size=N/A time=00:00:32.79 bitrate=N/A    frame=  988 fps=8.0 q=24.8 size=N/A time=00:00:32.96 bitrate=N/A    frame=  993 fps=8.0 q=24.8 size=N/A time=00:00:33.13 bitrate=N/A    frame=  998 fps=8.0 q=24.8 size=N/A time=00:00:33.29 bitrate=N/A    frame= 1003 fps=8.0 q=24.8 size=N/A time=00:00:33.46 bitrate=N/A    frame= 1008 fps=8.0 q=24.8 size=N/A time=00:00:33.63 bitrate=N/A    frame= 1013 fps=8.0 q=24.8 size=N/A time=00:00:33.80 bitrate=N/A    frame= 1018 fps=8.0 q=24.8 size=N/A time=00:00:33.96 bitrate=N/A    frame= 1023 fps=8.0 q=24.8 size=N/A time=00:00:34.13 bitrate=N/A    frame= 1028 fps=8.0 q=24.8 size=N/A time=00:00:34.30 bitrate=N/A    frame= 1033 fps=8.0 q=24.8 size=N/A time=00:00:34.46 bitrate=N/A    frame= 1038 fps=8.0 q=24.8 size=N/A time=00:00:34.63 bitrate=N/A    frame= 1043 fps=8.0 q=24.8 size=N/A time=00:00:34.80 bitrate=N/A    frame= 1048 fps=8.1 q=24.8 size=N/A time=00:00:34.96 bitrate=N/A    frame= 1053 fps=8.1 q=24.8 size=N/A time=00:00:35.13 bitrate=N/A    frame= 1058 fps=8.1 q=24.8 size=N/A time=00:00:35.30 bitrate=N/A    frame= 1063 fps=8.1 q=24.8 size=N/A time=00:00:35.46 bitrate=N/A    frame= 1068 fps=8.1 q=24.8 size=N/A time=00:00:35.63 bitrate=N/A    frame= 1073 fps=8.1 q=24.8 size=N/A time=00:00:35.80 bitrate=N/A    frame= 1078 fps=8.1 q=24.8 size=N/A time=00:00:35.96 bitrate=N/A    frame= 1083 fps=8.1 q=24.8 size=N/A time=00:00:36.13 bitrate=N/A    frame= 1088 fps=8.1 q=24.8 size=N/A time=00:00:36.30 bitrate=N/A    frame= 1093 fps=8.1 q=24.8 size=N/A time=00:00:36.46 bitrate=N/A    frame= 1098 fps=8.1 q=24.8 size=N/A time=00:00:36.63 bitrate=N/A    frame= 1103 fps=8.1 q=24.8 size=N/A time=00:00:36.80 bitrate=N/A    frame= 1108 fps=8.1 q=24.8 size=N/A time=00:00:36.97 bitrate=N/A    frame= 1113 fps=8.1 q=24.8 size=N/A time=00:00:37.13 bitrate=N/A    frame= 1118 fps=8.1 q=24.8 size=N/A time=00:00:37.30 bitrate=N/A    frame= 1123 fps=8.1 q=24.8 size=N/A time=00:00:37.47 bitrate=N/A    frame= 1128 fps=8.1 q=24.8 size=N/A time=00:00:37.63 bitrate=N/A    frame= 1133 fps=8.1 q=24.8 size=N/A time=00:00:37.80 bitrate=N/A    frame= 1138 fps=8.1 q=24.8 size=N/A time=00:00:37.97 bitrate=N/A    frame= 1143 fps=8.1 q=24.8 size=N/A time=00:00:38.13 bitrate=N/A    frame= 1148 fps=8.1 q=24.8 size=N/A time=00:00:38.30 bitrate=N/A    frame= 1153 fps=8.1 q=24.8 size=N/A time=00:00:38.47 bitrate=N/A    frame= 1158 fps=8.1 q=24.8 size=N/A time=00:00:38.63 bitrate=N/A    frame= 1163 fps=8.1 q=24.8 size=N/A time=00:00:38.80 bitrate=N/A    frame= 1168 fps=8.1 q=24.8 size=N/A time=00:00:38.97 bitrate=N/A    frame= 1173 fps=8.1 q=24.8 size=N/A time=00:00:39.13 bitrate=N/A    frame= 1178 fps=8.1 q=24.8 size=N/A time=00:00:39.30 bitrate=N/A    frame= 1183 fps=8.1 q=24.8 size=N/A time=00:00:39.47 bitrate=N/A    frame= 1188 fps=8.1 q=24.8 size=N/A time=00:00:39.63 bitrate=N/A    frame= 1193 fps=8.1 q=24.8 size=N/A time=00:00:39.80 bitrate=N/A    frame= 1198 fps=8.1 q=24.8 size=N/A time=00:00:39.97 bitrate=N/A    frame= 1203 fps=8.1 q=24.8 size=N/A time=00:00:40.14 bitrate=N/A    frame= 1208 fps=8.1 q=24.8 size=N/A time=00:00:40.30 bitrate=N/A    frame= 1213 fps=8.1 q=24.8 size=N/A time=00:00:40.47 bitrate=N/A    frame= 1218 fps=8.1 q=24.8 size=N/A time=00:00:40.64 bitrate=N/A    frame= 1223 fps=8.1 q=24.8 size=N/A time=00:00:40.80 bitrate=N/A    frame= 1228 fps=8.1 q=24.8 size=N/A time=00:00:40.97 bitrate=N/A    frame= 1233 fps=8.1 q=24.8 size=N/A time=00:00:41.14 bitrate=N/A    frame= 1238 fps=8.1 q=24.8 size=N/A time=00:00:41.30 bitrate=N/A    frame= 1243 fps=8.1 q=24.8 size=N/A time=00:00:41.47 bitrate=N/A    frame= 1248 fps=8.1 q=24.8 size=N/A time=00:00:41.64 bitrate=N/A    frame= 1253 fps=8.1 q=24.8 size=N/A time=00:00:41.80 bitrate=N/A    frame= 1258 fps=8.1 q=24.8 size=N/A time=00:00:41.97 bitrate=N/A    frame= 1263 fps=8.1 q=24.8 size=N/A time=00:00:42.14 bitrate=N/A    frame= 1268 fps=8.1 q=24.8 size=N/A time=00:00:42.30 bitrate=N/A    frame= 1273 fps=8.1 q=24.8 size=N/A time=00:00:42.47 bitrate=N/A    frame= 1278 fps=8.1 q=24.8 size=N/A time=00:00:42.64 bitrate=N/A    frame= 1283 fps=8.1 q=24.8 size=N/A time=00:00:42.80 bitrate=N/A    frame= 1288 fps=8.1 q=24.8 size=N/A time=00:00:42.97 bitrate=N/A    frame= 1293 fps=8.1 q=24.8 size=N/A time=00:00:43.14 bitrate=N/A    frame= 1298 fps=8.1 q=24.8 size=N/A time=00:00:43.30 bitrate=N/A    frame= 1303 fps=8.1 q=24.8 size=N/A time=00:00:43.47 bitrate=N/A    frame= 1308 fps=8.1 q=24.8 size=N/A time=00:00:43.64 bitrate=N/A    frame= 1313 fps=8.1 q=24.8 size=N/A time=00:00:43.81 bitrate=N/A    frame= 1318 fps=8.1 q=24.8 size=N/A time=00:00:43.97 bitrate=N/A    frame= 1323 fps=8.1 q=24.8 size=N/A time=00:00:44.14 bitrate=N/A    frame= 1328 fps=8.1 q=24.8 size=N/A time=00:00:44.31 bitrate=N/A    frame= 1333 fps=8.1 q=24.8 size=N/A time=00:00:44.47 bitrate=N/A    frame= 1338 fps=8.1 q=24.8 size=N/A time=00:00:44.64 bitrate=N/A    frame= 1343 fps=8.1 q=24.8 size=N/A time=00:00:44.81 bitrate=N/A    frame= 1348 fps=8.1 q=24.8 size=N/A time=00:00:44.97 bitrate=N/A    frame= 1353 fps=8.1 q=24.8 size=N/A time=00:00:45.14 bitrate=N/A    frame= 1358 fps=8.1 q=24.8 size=N/A time=00:00:45.31 bitrate=N/A    frame= 1363 fps=8.1 q=24.8 size=N/A time=00:00:45.47 bitrate=N/A    frame= 1368 fps=8.1 q=24.8 size=N/A time=00:00:45.64 bitrate=N/A    frame= 1373 fps=8.1 q=24.8 size=N/A time=00:00:45.81 bitrate=N/A    frame= 1378 fps=8.1 q=24.8 size=N/A time=00:00:45.97 bitrate=N/A    frame= 1383 fps=8.1 q=24.8 size=N/A time=00:00:46.14 bitrate=N/A    frame= 1388 fps=8.1 q=24.8 size=N/A time=00:00:46.31 bitrate=N/A    frame= 1393 fps=8.1 q=24.8 size=N/A time=00:00:46.47 bitrate=N/A    frame= 1398 fps=8.1 q=24.8 size=N/A time=00:00:46.64 bitrate=N/A    frame= 1403 fps=8.1 q=24.8 size=N/A time=00:00:46.81 bitrate=N/A    frame= 1408 fps=8.1 q=24.8 size=N/A time=00:00:46.98 bitrate=N/A    frame= 1413 fps=8.1 q=24.8 size=N/A time=00:00:47.14 bitrate=N/A    frame= 1418 fps=8.1 q=24.8 size=N/A time=00:00:47.31 bitrate=N/A    frame= 1423 fps=8.1 q=24.8 size=N/A time=00:00:47.48 bitrate=N/A    frame= 1428 fps=8.1 q=24.8 size=N/A time=00:00:47.64 bitrate=N/A    frame= 1433 fps=8.1 q=24.8 size=N/A time=00:00:47.81 bitrate=N/A    frame= 1438 fps=8.1 q=24.8 size=N/A time=00:00:47.98 bitrate=N/A    frame= 1443 fps=8.1 q=24.8 size=N/A time=00:00:48.14 bitrate=N/A    frame= 1448 fps=8.1 q=24.8 size=N/A time=00:00:48.31 bitrate=N/A    frame= 1453 fps=8.1 q=24.8 size=N/A time=00:00:48.48 bitrate=N/A    frame= 1458 fps=8.1 q=24.8 size=N/A time=00:00:48.64 bitrate=N/A    frame= 1463 fps=8.1 q=24.8 size=N/A time=00:00:48.81 bitrate=N/A    frame= 1468 fps=8.1 q=24.8 size=N/A time=00:00:48.98 bitrate=N/A    frame= 1473 fps=8.1 q=24.8 size=N/A time=00:00:49.14 bitrate=N/A    frame= 1478 fps=8.1 q=24.8 size=N/A time=00:00:49.31 bitrate=N/A    frame= 1483 fps=8.1 q=24.8 size=N/A time=00:00:49.48 bitrate=N/A    frame= 1488 fps=8.1 q=24.8 size=N/A time=00:00:49.64 bitrate=N/A    frame= 1493 fps=8.1 q=24.8 size=N/A time=00:00:49.81 bitrate=N/A    frame= 1498 fps=8.1 q=24.8 size=N/A time=00:00:49.98 bitrate=N/A    frame= 1503 fps=8.1 q=24.8 size=N/A time=00:00:50.15 bitrate=N/A    frame= 1508 fps=8.1 q=24.8 size=N/A time=00:00:50.31 bitrate=N/A    frame= 1513 fps=8.1 q=24.8 size=N/A time=00:00:50.48 bitrate=N/A    frame= 1518 fps=8.1 q=24.8 size=N/A time=00:00:50.65 bitrate=N/A    frame= 1523 fps=8.1 q=24.8 size=N/A time=00:00:50.81 bitrate=N/A    frame= 1528 fps=8.1 q=24.8 size=N/A time=00:00:50.98 bitrate=N/A    frame= 1533 fps=8.1 q=24.8 size=N/A time=00:00:51.15 bitrate=N/A    frame= 1538 fps=8.1 q=24.8 size=N/A time=00:00:51.31 bitrate=N/A    frame= 1543 fps=8.1 q=24.8 size=N/A time=00:00:51.48 bitrate=N/A    frame= 1548 fps=8.1 q=24.8 size=N/A time=00:00:51.65 bitrate=N/A    frame= 1553 fps=8.1 q=24.8 size=N/A time=00:00:51.81 bitrate=N/A    frame= 1558 fps=8.1 q=24.8 size=N/A time=00:00:51.98 bitrate=N/A    frame= 1563 fps=8.1 q=24.8 size=N/A time=00:00:52.15 bitrate=N/A    frame= 1568 fps=8.1 q=24.8 size=N/A time=00:00:52.31 bitrate=N/A    frame= 1573 fps=8.1 q=24.8 size=N/A time=00:00:52.48 bitrate=N/A    frame= 1578 fps=8.1 q=24.8 size=N/A time=00:00:52.65 bitrate=N/A    frame= 1583 fps=8.1 q=24.8 size=N/A time=00:00:52.81 bitrate=N/A    frame= 1588 fps=8.1 q=24.8 size=N/A time=00:00:52.98 bitrate=N/A    frame= 1593 fps=8.1 q=24.8 size=N/A time=00:00:53.15 bitrate=N/A    frame= 1598 fps=8.1 q=24.8 size=N/A time=00:00:53.31 bitrate=N/A    frame= 1603 fps=8.1 q=24.8 size=N/A time=00:00:53.48 bitrate=N/A    frame= 1608 fps=8.1 q=24.8 size=N/A time=00:00:53.65 bitrate=N/A    frame= 1613 fps=8.1 q=24.8 size=N/A time=00:00:53.82 bitrate=N/A    frame= 1618 fps=8.1 q=24.8 size=N/A time=00:00:53.98 bitrate=N/A    frame= 1623 fps=8.1 q=24.8 size=N/A time=00:00:54.15 bitrate=N/A    frame= 1628 fps=8.1 q=24.8 size=N/A time=00:00:54.32 bitrate=N/A    frame= 1633 fps=8.1 q=24.8 size=N/A time=00:00:54.48 bitrate=N/A    frame= 1638 fps=8.1 q=24.8 size=N/A time=00:00:54.65 bitrate=N/A    frame= 1643 fps=8.1 q=24.8 size=N/A time=00:00:54.82 bitrate=N/A    frame= 1648 fps=8.1 q=24.8 size=N/A time=00:00:54.98 bitrate=N/A    frame= 1653 fps=8.1 q=24.8 size=N/A time=00:00:55.15 bitrate=N/A    frame= 1658 fps=8.1 q=24.8 size=N/A time=00:00:55.32 bitrate=N/A    frame= 1663 fps=8.1 q=24.8 size=N/A time=00:00:55.48 bitrate=N/A    frame= 1668 fps=8.1 q=24.8 size=N/A time=00:00:55.65 bitrate=N/A    frame= 1673 fps=8.1 q=24.8 size=N/A time=00:00:55.82 bitrate=N/A    frame= 1678 fps=8.1 q=24.8 size=N/A time=00:00:55.98 bitrate=N/A    frame= 1683 fps=8.1 q=24.8 size=N/A time=00:00:56.15 bitrate=N/A    frame= 1688 fps=8.1 q=24.8 size=N/A time=00:00:56.32 bitrate=N/A    frame= 1693 fps=8.1 q=24.8 size=N/A time=00:00:56.48 bitrate=N/A    frame= 1698 fps=8.1 q=24.8 size=N/A time=00:00:56.65 bitrate=N/A    frame= 1703 fps=8.1 q=24.8 size=N/A time=00:00:56.82 bitrate=N/A    frame= 1704 fps=8.1 q=24.8 Lsize=N/A time=00:00:56.85 bitrate=N/A    
video:1485976kB audio:0kB subtitle:0kB other streams:0kB global headers:0kB muxing overhead: unknown
+ turkic load Gabonaturas_Kotcse_2018.04.25._napos_kalaszos_T1 /home/horvathandras/vatic/vatic/videos/Gabonaturas_Kotcse_2018.04.25._napos_kalaszos_T1 $'Pozit\303\255vROI' $'Negat\303\255vROI' $'T\303\272r\303\241s' '~Friss' '~Régebbi' $'R\303\241g\303\241s' '~Friss' '~Régebbi' $'T\303\266r\303\251s' '~Friss' '~Régebbi' $'Tapos\303\241s' '~Friss' '~Régebbi' $'Eg\303\251szs\303\251gesN\303\266v\303\251ny' $'Egy\303\251b1' $'Egy\303\251b2' $'Egy\303\251b3' $'Egy\303\251b4' $'Egy\303\251b5' --offline --title '$filenameNoDot Video' --length 1000 --description 'vatic annotation'
+ turkic publish --offline
+ mkdir /home/horvathandras/vatic/vatic/public/videothumbnails/Gabonaturas_Kotcse_2018.04.25._napos_kalaszos_T1
+ cp /home/horvathandras/vatic/vatic/videos/Gabonaturas_Kotcse_2018.04.25._napos_kalaszos_T1/0/0/31.jpg /home/horvathandras/vatic/vatic/public/videothumbnails/Gabonaturas_Kotcse_2018.04.25._napos_kalaszos_T1/thumb.jpg
